<?xml version="1.0" encoding="UTF-8"?>
<svg width="360px" height="200px" viewBox="0 0 360 200" version="1.1" xmlns="http://www.w3.org/2000/svg" xmlns:xlink="http://www.w3.org/1999/xlink">
    <!-- Generator: Sketch 42 (36781) - http://www.bohemiancoding.com/sketch -->
    <title>shrimp-pl</title>
    <desc>Created with Sketch.</desc>
    <defs>
        <path d="M0.984824109,54.1541155 C0.0578058151,54.1541152 0,53.0190192 0,53.0190192 C0,53.0190192 7.90911727,40.1480597 9.89671642,38.1748401 C11.8905075,36.2098081 37.3639744,16.7866951 42.594064,14.9383369 C44.6084947,14.2301066 45.2834115,10.6377825 52.333919,9.54473348 C54.0325629,9.28272921 58.2822687,5.95240938 63.0314542,5.3424307 C67.0685714,4.83275053 69.9106525,1.18311301 76.2346439,0.421663113 C77.3285458,0.288614072 78.3894243,0.227206823 79.4214072,0.223113006 L79.5844606,0.223113006 C83.8692537,0.237441365 87.6937825,1.2547548 91.5843582,2.33552239 C99.8815011,4.63624733 100.508947,6.4006823 105.62139,8.65023454 C116.273518,13.3110448 110.434559,8.56426439 138.719147,24.5976972 C145.680904,28.5379957 146.382652,26.8554371 152.050303,31.3545416 C154.213881,33.0687626 155.060889,34.782391 155.060895,36.2551415 L155.060895,36.2551415 C155.060904,38.6530132 152.815595,40.4123414 150.351659,40.4960341 C146.382652,40.6393177 144.675753,43.73629 141.569484,44.0146695 C138.43432,44.3012367 137.020503,46.2621748 129.635633,46.2621748 C122.267275,46.2621748 109.532606,39.6895522 105.037288,33.7473774 C94.1890832,19.3985501 88.8516674,9.39326226 75.8920256,13.0674627 C62.7074115,16.8051173 54.0593945,20.58371 29.7169808,30.3699787 C24.1525288,32.6072495 16.1773646,37.329467 12.4746098,44.0883582 C11.8657399,45.2080171 11.0195139,45.0340299 10.105177,44.8579957 C9.35182942,44.7126652 8.55513859,44.5693817 7.81004691,45.1466098 C5.87817484,46.6101493 3.17850746,53.3731343 1.63259701,54.0076759 C1.3795795,54.1109199 1.16566304,54.1541155 0.984824109,54.1541155 L0.984824109,54.1541155 L0.984824109,54.1541155 Z" id="path-1"></path>
        <linearGradient x1="87.3513347%" y1="53.3709109%" x2="17.0270109%" y2="53.3709123%" id="linearGradient-3">
            <stop stop-color="#0083C6" offset="0%"></stop>
            <stop stop-color="#002747" offset="100%"></stop>
        </linearGradient>
    </defs>
    <g id="Page-1" stroke="none" stroke-width="1" fill="none" fill-rule="evenodd">
        <g id="V2" transform="translate(-914.000000, -167.000000)">
            <g id="shrimp-pl" transform="translate(985.000000, 247.000000)">
                <polygon id="Fill-1" fill="#007DC3" points="60.4758516 18.9573561 60.4758516 25.990533 56.7400733 34.5691258 64.1847983 25.990533 64.1847983 17.6104904"></polygon>
                <polygon id="Fill-2" fill="#007DC3" points="70.0256154 15.6509851 69.0741271 22.1192154 53.3301953 30.7714968 73.7613936 23.2081706 75.0389885 14.134226"></polygon>
                <polygon id="Fill-3" fill="#007DC3" points="82.6271591 12.6547207 81.1142721 16.1262772 78.5239949 22.113484 56.0350226 28.6656375 75.1060674 19.2437186 78.5239949 12.6547207"></polygon>
                <g id="Group-32" transform="translate(79.430704, 11.057518)">
                    <path d="M3.19645544,0.727675906 C3.19645544,0.727675906 8.59372623,11.6540725 8.59372623,15.0335181 C8.59372623,18.4047761 8.59372623,19.7127505 8.51942345,21.1210235 C8.41828913,22.8158635 3.19645544,9.10567164 3.19645544,9.10567164 L0.798127079,2.79914712 L3.19645544,0.727675906 Z" id="Fill-4" fill="#007DC3"></path>
                    <path d="M10.7499514,4.72139872 C10.7499514,4.72139872 11.6271369,12.3870704 12.345397,15.7747036 C13.1647915,19.7129552 14.1967744,23.6000341 15.0863437,26.2303113 C16.0130644,29.0529979 19.3979684,30.502209 19.3979684,30.502209 L15.5589919,15.9486908 C15.5589919,15.9486908 14.9026507,14.114661 15.187478,9.13043923 C15.4867531,4.15440512 10.7499514,4.72139872 10.7499514,4.72139872" id="Fill-6" fill="#007DC3"></path>
                    <path d="M21.3952682,14.4663198 C21.3952682,14.4663198 19.6491531,25.5175778 21.4798908,28.9952751 C23.3085646,32.4750192 26.1919249,35.8544648 26.1919249,35.8544648 C26.1919249,35.8544648 23.9339463,27.8981322 23.7935966,25.1655096 C23.7007181,23.3642303 24.6191829,18.0054243 24.6191829,18.0054243 L21.3952682,14.4663198 Z" id="Fill-8" fill="#007DC3"></path>
                    <polygon id="Fill-10" fill="#007DC3" points="36.8446721 28.9944563 47.9075292 49.2547548 48.6939002 65.9247761 50.7083309 47.46371 41.0159471 32.3124947"></polygon>
                    <polygon id="Fill-12" fill="#007DC3" points="34.0370593 27.6132026 49.2794473 44.2074883 54.7943642 59.9707292 51.1328887 41.7839488 38.5241211 29.7276588"></polygon>
                    <path d="M28.5727096,25.4383625 L33.2599761,45.3772964 C33.2599761,45.3772964 35.8172299,54.5515394 30.9297586,56.0335011 C26.0257757,57.509322 23.0577928,57.509322 20.7089996,57.0856119 C18.3705262,56.6639488 33.0081723,60.23171 35.7429271,56.0089382 C38.4797458,51.7902601 38.0731446,47.9379787 37.2207267,45.899258 C36.3724367,43.8482559 31.7388333,26.9141834 31.7388333,26.9141834 L28.5727096,25.4383625 Z" id="Fill-14" fill="#007DC3"></path>
                    <path d="M34.0370593,23.0897399 L37.2712938,43.0307207 C37.2712938,43.0307207 39.0256648,52.2151983 35.6510806,53.6889723 C32.2826883,55.1647932 30.2269783,55.1647932 28.5985092,54.7410832 C26.9927437,54.31942 37.0958567,57.8810405 38.9761296,53.6644094 C40.8811701,49.4416375 40.6025348,45.591403 40.0039846,43.5485885 C39.4260742,41.5078209 36.2186712,24.5696546 36.2186712,24.5696546 L34.0370593,23.0897399 Z" id="Fill-16" fill="#007DC3"></path>
                    <path d="M27.0932588,20.2971429 L30.3274934,40.2422175 C30.3274934,40.2422175 32.0818644,49.4185075 28.6969603,50.8963753 C25.3265041,52.37629 23.2666661,52.37629 21.6547087,51.95258 C20.0406874,51.5309168 30.1479284,55.0884435 32.0323292,50.8718124 C33.920858,46.6531343 33.6360307,42.8028998 33.0601842,40.7518977 C32.4636981,38.7090832 29.2748708,21.7729638 29.2748708,21.7729638 L27.0932588,20.2971429 Z" id="Fill-18" fill="#007DC3"></path>
                    <polygon id="Fill-20" fill="#79BDE9" points="134.702631 67.0139118 64.3026296 31.8710533 64.3026296 26.0139104"></polygon>
                    <path d="M87.3061612,28.6827122 C84.2225962,27.5384904 77.155577,28.2978934 74.7056495,28.4882559 C72.2454021,28.6786183 75.097803,31.6404947 75.097803,31.6404947 C75.097803,31.6404947 88.7137859,28.8444179 92.1193296,31.6404947 C92.1193296,31.6404947 88.6353552,29.1801109 87.3061612,28.6827122" id="Fill-22" fill="#007DC3"></path>
                    <path d="M67.5630793,30.1739878 C67.5630793,30.1739878 131.696046,53.0255293 137.635962,52.3710534 L66.3768279,27.0919406 L67.5630793,30.1739878 Z" id="Fill-24" fill="#79BDE9"></path>
                    <polygon id="Fill-26" fill="#007DC3" points="60.5008171 33.4182345 69.0311881 42.0213902 71.9909151 50.4566994 71.2086721 40.7154627 64.9032563 32.0386183"></polygon>
                    <polygon id="Fill-28" fill="#007DC3" points="67.7870294 31.0694072 74.3215454 40.5363582 77.3039761 52.7727761 72.5403429 41.9221151 65.0956179 32.6721365"></polygon>
                    <path d="M70.0051736,29.9141322 C70.0051736,29.9141322 77.8317322,32.7224904 79.8110755,38.3535352 C81.7656512,43.98458 85.1753228,52.4198891 85.1753228,52.4198891 C85.1753228,52.4198891 82.9111522,40.7279488 82.9111522,39.3974584 C82.9111522,38.490678 79.8110755,33.7848358 77.3549561,30.9068827 C76.2011991,29.5661578 75.1981117,28.6204861 74.7048239,28.6470959 C73.1671693,28.7371599 70.2776171,28.6470959 70.2776171,28.6470959 L70.0051736,29.9141322 Z" id="Fill-30" fill="#007DC3"></path>
                </g>
                <g id="Group-35" transform="translate(0.000000, 0.822977)">
                    <mask id="mask-2" fill="white">
                        <use xlink:href="#path-1"></use>
                    </mask>
                    <g id="Clip-34"></g>
                    <path d="M79.4214072,0.223113006 C78.3894243,0.227206823 77.3285458,0.288614072 76.2346439,0.421663113 L76.2346439,0.421663113 C69.9106525,1.18311301 67.0685714,4.83275053 63.0314542,5.3424307 L63.0314542,5.3424307 C58.2822687,5.95240938 54.0325629,9.28272921 52.333919,9.54473348 L52.333919,9.54473348 C45.2834115,10.6377825 44.6084947,14.2301066 42.594064,14.9383369 L42.594064,14.9383369 C37.3639744,16.7866951 11.8905075,36.2098081 9.89671642,38.1748401 L9.89671642,38.1748401 C7.90911727,40.1480597 0,53.0190192 0,53.0190192 L0,53.0190192 C0,53.0190192 0.0825586354,54.6401706 1.63259701,54.0076759 L1.63259701,54.0076759 C3.17850746,53.3731343 5.87817484,46.6101493 7.81004691,45.1466098 L7.81004691,45.1466098 C8.55513859,44.5693817 9.35182942,44.7126652 10.105177,44.8579957 L10.105177,44.8579957 C11.0195139,45.0340299 11.8657399,45.2080171 12.4746098,44.0883582 L12.4746098,44.0883582 C16.1773646,37.329467 24.1525288,32.6072495 29.7169808,30.3699787 L29.7169808,30.3699787 C54.0593945,20.58371 62.7074115,16.8051173 75.8920256,13.0674627 L75.8920256,13.0674627 C88.8516674,9.39326226 94.1890832,19.3985501 105.037288,33.7473774 L105.037288,33.7473774 C109.532606,39.6895522 122.267275,46.2621748 129.635633,46.2621748 L129.635633,46.2621748 C137.020503,46.2621748 138.43432,44.3012367 141.569484,44.0146695 L141.569484,44.0146695 C144.675753,43.73629 146.382652,40.6393177 150.351659,40.4960341 L150.351659,40.4960341 C154.328921,40.3609382 157.736529,35.8597868 152.050303,31.3545416 L152.050303,31.3545416 C146.382652,26.8554371 145.680904,28.5379957 138.719147,24.5976972 L138.719147,24.5976972 C110.434559,8.56426439 116.273518,13.3110448 105.62139,8.65023454 L105.62139,8.65023454 C100.508947,6.4006823 99.8815011,4.63624733 91.5843582,2.33552239 L91.5843582,2.33552239 C87.6937825,1.2547548 83.8692537,0.237441365 79.5844606,0.223113006 L79.5844606,0.223113006 L79.4214072,0.223113006 Z" id="Fill-33" fill="url(#linearGradient-3)" mask="url(#mask-2)"></path>
                </g>
                <g id="Group-44" transform="translate(0.000000, 32.526601)" fill="#000031">
                    <path d="M147.735788,0.639164179 C147.735788,0.639164179 144.049545,2.55302345 145.680078,4.85784222 C147.434449,7.35097655 148.796667,6.66730917 150.350833,6.63046482 C151.822441,6.59566738 151.620172,4.43003838 151.422032,3.67063539 C151.120693,2.52846055 151.019558,0.639164179 147.735788,0.639164179" id="Fill-36"></path>
                    <path d="M17.9437066,5.78447761 C18.0200733,8.83027719 14.6000819,17.4948401 14.6000819,17.4948401 C14.6000819,17.4948401 9.01086226,21.0114286 8.41024819,19.5192324 C7.99951898,18.4875906 15.8549731,4.80605544 16.4782908,2.38660981 C16.4782908,2.38660981 17.918939,4.91454158 17.9437066,5.78447761" id="Fill-38"></path>
                    <path d="M16.4774652,2.38620043 C16.2566209,3.07396162 8.01726908,18.8228742 8.01726908,18.8228742 C8.01726908,18.8228742 3.62102175,24.2799318 1.88109851,23.9278635 C0.137047335,23.5696546 -0.490398294,21.1727249 0.613823454,18.8351557 C1.7180452,16.505774 14.8531241,1.47942004 14.8531241,1.47942004 C14.8531241,1.47942004 16.6817979,1.74551812 16.4774652,2.38620043" id="Fill-40"></path>
                    <path d="M14.0506542,2.45415778 L0.938278891,14.8297655 C0.938278891,14.8297655 -0.0668724947,18.6001706 0.53786951,17.8039232 C2.74424904,14.8829851 14.0506542,2.45415778 14.0506542,2.45415778" id="Fill-42"></path>
                </g>
            </g>
        </g>
    </g>
</svg>